<?xml version="1.0" encoding="utf-8"?>
<!-- Generator: Adobe Illustrator 26.1.0, SVG Export Plug-In . SVG Version: 6.00 Build 0)  -->
<svg version="1.1" id="Ebene_1" xmlns="http://www.w3.org/2000/svg" 
	 viewBox="0 0 1920 1080" >
<style type="text/css">
	.st0{fill-rule:evenodd;clip-rule:evenodd;fill:#FCF5EB;stroke:#844E17;stroke-width:0.25;stroke-miterlimit:10;}
</style>
<path class="st0" d="M892.58,590.94c0,0-0.28,5.77-0.48,6.72c-0.2,0.95-0.38,7.01-0.48,7.92c-0.1,0.91-0.01,5.63,0,6.48
	c0.01,0.85,0.5,5.96,0.72,6.96c0.22,1,2.39-7.87,2.4-8.4c0.01-0.53,1.23-4.14,1.2-5.52c-0.03-1.38,0.8-5.19,0.72-6.48
	c-0.08-1.29,0-3.81,0-4.56C896.66,593.31,892.58,590.94,892.58,590.94z">
	<animate attributeType="CSS" attributeName="fill" values="#d6d6d6;#cd5c5ccc;#ffd70080;#90ee9080;#7fffd480;#19197080;#483d8b80;#4b008280;#d6d6d6" begin="mouseenter" dur="1s"></animate>
	</path>
<path class="st0" d="M892.34,619.26c0,0,0.97,3.59,1.68,5.28c0.71,1.69,2.59,6.29,3.12,7.44c0.53,1.15,4.42,3.84,6,4.56
	c1.58,0.72,2.4,1.2,2.4,1.2s-2.82-5.34-3.84-7.92c-1.02-2.58-3.19-9.29-3.84-12c-0.65-2.71-1.51-8.56-1.68-9.36
	c-0.17-0.8-0.48-2.4-0.48-2.4L892.34,619.26z"/>
<path class="st0" d="M897.86,632.94c0,0,3.01,6.28,4.08,8.16c1.07,1.88,5.63,8.64,6.48,10.08c0.85,1.44,4.28,4.98,5.76,7.2
	s-1.94-7.1-2.64-8.4c-0.7-1.3-1.04-3.79-1.44-4.8c-0.4-1.01-1.79-3.28-2.88-4.8s-1.68-2.88-1.68-2.88L897.86,632.94z"/>
<path class="st0" d="M914.66,658.86c0,0,1.15,2.01,2.4,3.84c1.25,1.83,4.27,6.02,5.76,7.44c1.49,1.42,8.88,2.64,8.88,2.64
	l-6.48-5.52c0,0-0.8-2.18-0.72-3.12c0.08-0.94-0.51-3.58-2.88-6.24c-2.37-2.66-11.04-12.24-11.04-12.24L914.66,658.86z"/>
<path class="st0" d="M923.54,660.06c0,0,0.05-4.92,0-6.24c-0.05-1.32,0.73-8.8,0.96-10.8c0.23-2,1.44-6.29,1.68-7.68
	c0.24-1.39,0.79-3.7,0.96-4.08c0.17-0.38,2.49,3.16,2.4,4.56c-0.09,1.4-0.09,12.14-0.24,13.2c-0.15,1.06-0.98,13.35-0.96,14.64
	c0.02,1.29,3.12,8.64,3.12,8.64l-6-5.28L923.54,660.06z"/>
<path class="st0" d="M923.78,670.86c0,0,6.66,5.85,7.92,6.48c1.26,0.63,5.69,3,7.44,3.36c1.75,0.36,2.39,1.07,3.84,1.2
	c1.45,0.13,5.04-4.32,5.04-4.32l-7.68,0.48l-4.32-4.08l-4.32-0.96L923.78,670.86z"/>
<path class="st0" d="M938.42,675.9l0.96-5.04c0,0-1.44,0.29-2.4-3.84c-0.96-4.13-0.85-8.66-0.72-11.28
	c0.13-2.62-2.88-11.28-2.88-11.28l-4.32,7.68c0,0-0.05,6.75-0.24,8.16c-0.19,1.41-0.2,2.84,0,4.08c0.2,1.24,3.12,8.64,3.12,8.64
	l4.32,0.72L938.42,675.9z"/>
<path class="st0" d="M929.3,650.94c0,0,0.59-14.92,0.48-15.6c-0.11-0.68-1.81-4.52-2.16-5.76c-0.35-1.24-0.24-1.88-0.72-3.6
	c-0.48-1.72,5.28,4.56,5.28,4.56l4.08,7.68l-0.24,15.12l-2.4-9.36L929.3,650.94z"/>
<path class="st0" d="M936.26,637.5c0,0-0.32-11.63-1.2-14.4c-0.88-2.77-2.86-9.32-3.36-10.32c-0.5-1-4.56,12.48-4.56,12.48
	l5.28,5.28L936.26,637.5z"/>
<path class="st0" d="M927.14,625.26c0,0-2.25-9.03-2.64-10.8s-1.72-13.45-2.16-14.64c-0.44-1.19-2.67-9.56-3.12-10.32
	c-0.45-0.76-1.81-5.73-2.16-6.96c-0.35-1.23,7.44,9.12,7.44,9.12l6.96,20.88L927.14,625.26z"/>
<path class="st0" d="M917.3,582.3c0,0-5.02-13.74-5.76-16.8c-0.74-3.06-2.4-12.24-2.4-12.24c-0.14-0.85-2.07-12.94-2.16-15.36
	c-0.09-2.42,6.24-17.76,6.24-17.76s0.06,14.16,0,15.36c-0.06,1.2-0.62,7.53-0.72,9.36s-0.27,6.94,1.92,8.88
	c2.19,1.94,2.16,4.32,2.16,4.32l4.32,19.92l3.6,13.2L917.3,582.3z"/>
<path class="st0" d="M907.22,535.26c0,0-0.95-6.73,0-13.92c0.95-7.18,3.48-18.84,5.76-24.24c2.28-5.4,3.85-9.08,4.08-9.6
	s0.79-0.9,1.68-0.96c0.89-0.06,3.02,0.99,3.36,1.44s0.09,2.83-0.48,3.84c-0.57,1.01-3.12,7.68-3.84,9.6
	c-0.72,1.92-3.18,8.25-3.6,10.32c-0.42,2.07-0.96,8.64-0.96,8.64L907.22,535.26z"/>
<path class="st0" d="M910.34,645.66c0,0-0.59-5.43-0.72-8.88c-0.13-3.45-0.44-10.19-0.24-12.96c0.2-2.77,1.13-9.27,1.68-11.52
	s4.63-15.52,5.04-17.04s2.88-6.48,2.88-6.48l3.36,11.52c0,0-0.89,1.24-1.68,3.6c-0.79,2.36-2.55,12.57-2.64,15.6
	c-0.09,3.03-0.68,12.09-0.48,15.84c0.2,3.75,1.71,12.99,2.64,15.36s3.12,9.36,3.12,9.36L910.34,645.66z"/>
<path class="st0" d="M923.54,659.82c0,0-5.93-18.12-5.52-19.92c0.41-1.8,1.79-8.76,2.16-10.08c0.37-1.32,0.89-4.92,1.2-6.48
	c0.31-1.56,1.51-7.23,1.92-8.64c0.41-1.41,0.72-1.68,0.72-1.68l3.36,18c0,0-2.69,9.14-2.88,10.8S923.54,659.82,923.54,659.82z"/>
<path class="st0" d="M909.38,628.86c0,0-2.11-3.38-3.12-6.24c-1.01-2.86-4.14-14.48-4.56-16.32s-1.54-10.01-1.68-10.8
	s-0.24-1.44-0.24-1.44s1.67-0.91,1.92-1.2s1.68-1.92,1.68-1.92s1.8,6.81,2.16,8.64s3.6,14.64,3.6,14.64l0.96,2.4L909.38,628.86z"/>
<path class="st0" d="M894.98,572.46c0,0,2.01-0.5,3.12-0.72c1.11-0.22,0-22.08,0-22.08l-1.2-23.28l-6-26.4l1.44,37.2l1.44,30.48
	c0,0,0.04,1.15,0.24,2.4C894.22,571.31,894.98,572.46,894.98,572.46z"/>
<path class="st0" d="M896.42,523.26c0,0-0.31-18.18-0.48-20.4c-0.17-2.22,0.11-13.04,0.24-14.88s2.5-9.03,2.88-10.8
	c0.38-1.77,0.96-4.8,0.96-4.8l-5.28-2.64c0,0-1.75,7.16-2.16,8.88c-0.41,1.72-1.85,16.72-1.92,17.76c-0.07,1.04,0.24,4.08,0.24,4.08
	L896.42,523.26z"/>
<path class="st0" d="M906.74,533.1c0,0-0.04-0.17-0.12-0.48c-0.54-2.11-2.75-10.61-3.96-13.68c-1.39-3.51-5.11-13.58-5.76-14.16
	c-0.65-0.58-0.96-1.68-0.96-1.68l-0.24-5.76c0,0,5.2,7.75,6,10.08s5.76,10.56,5.76,10.56s-0.78,9.14-0.96,10.08"/>
<path class="st0" d="M890.66,498.78v-6.96c0,0-2.83-3.67-4.32-5.76c-1.49-2.09-3.74-4.37-4.32-4.56c-0.58-0.19-1.2,1.44-1.2,1.44
	s1.05,2.07,2.4,4.08C884.57,489.03,890.66,498.78,890.66,498.78z"/>
<path class="st0" d="M931.7,611.82c0,0,0.23-5.07,0-6.72c-0.23-1.65,0.28-18.98,0.24-20.4c-0.04-1.42,0.24-10.32,0.24-10.32
	l-5.52,11.52l0.24,12L931.7,611.82z"/>
<path class="st0" d="M924.5,591.18c0,0,0.07-0.2,0.18-0.53c0.5-1.5,1.95-5.76,2.7-7.39c0.92-1.99,4.81-9.26,5.52-10.56
	s2.64-3.6,2.64-3.6l-3.36-7.68c0,0-1.74,1.38-2.88,2.88s-4.15,9.91-5.28,11.52c-1.13,1.61-2.4,3.84-2.4,3.84"/>
<path class="st0" d="M949.7,651.42c0,0-0.34-13.59-0.48-15.12c-0.14-1.53-0.34-15.25-0.48-17.04s-0.24-6.72-0.24-6.72l-6.48,6.96
	c0,0-0.42,8.2-0.48,9.36c-0.06,1.16-0.61,8.33-0.72,9.6s-0.24,5.04-0.24,5.04L949.7,651.42z"/>
<path class="st0" d="M965.78,651.66c0,0-0.91-4.74-1.2-6c-0.29-1.26-1.49-14.1-1.68-15.6c-0.19-1.5-0.48-5.76-0.48-5.76l-7.44-15.84
	c0,0-0.97,10.56-0.96,12.72c0.01,2.16-0.25,12.63-0.24,15.12c0.01,2.49,0.78,19.26,1.44,22.08c0.66,2.82,0.72,3.6,0.72,3.6l6.48-2.4
	L965.78,651.66z"/>
<path class="st0" d="M968.42,661.5l-2.88-12c0,0,3.11-5.25,3.6-8.16c0.49-2.91,1.45-10.82,1.44-13.92c-0.01-3.1,0.24-6.96,0.24-6.96
	l2.4-12.96l2.64,11.04c0,0-0.03,7.26-0.24,8.88c-0.21,1.62,0.16,6.14,0,7.92c-0.16,1.78,0,6.24,0,6.24l-5.52,12.24l-1.44,3.36
	L968.42,661.5z"/>
<path class="st0" d="M996.5,626.22c0,0,5.72-15.11,6.48-17.76c0.76-2.65,4.93-15.79,5.28-18.48c0.35-2.69,0.48-5.52,0.48-5.52
	l5.52,10.56c0,0-0.48,8.18-0.96,10.08c-0.48,1.9-1.68,6.24-1.68,6.24L996.5,626.22z"/>
<path class="st0" d="M953.78,662.94l2.4-0.96c0,0-1.44-10.99-1.68-14.16s-0.86-11.38-0.72-13.2c0.14-1.82-1.92-15.84-1.92-15.84
	l-2.64,17.52c0,0,0.15,7.58,0.24,9.36c0.09,1.78,0.59,7.25,1.2,10.08s0.88,4.18,1.68,5.28
	C953.14,662.12,953.78,662.94,953.78,662.94z"/>
<path class="st0" d="M955.22,608.7c0,0,1.42-7.54,1.92-9.36c0.5-1.82,2.23-7.51,2.64-9.12c0.41-1.61,13.2-17.76,13.2-17.76
	s-0.59,2.69-2.16,6.24s-0.56,1.94-1.92,5.04c-1.36,3.1-1.28,4.08-1.92,5.28c-0.64,1.2-1.43,4.08-1.68,5.76
	c-0.25,1.67-1.35,5.13-1.68,7.2c-0.33,2.07-0.52,8.82-0.72,11.28c-0.2,2.46-0.24,10.8-0.24,10.8L955.22,608.7z"/>
<path class="st0" d="M971.06,619.5c0,0-0.1-20.39-0.24-22.32s-0.81-11.84-0.96-12.72s-0.48-1.92-0.48-1.92s0.28-2.55,1.68-4.8
	c1.4-2.25,3.12-4.08,3.12-4.08s1.65,3.79,1.92,10.8c0.27,7.01,0.62,15.96,0.48,17.76c-0.14,1.8-0.72,15.84-0.72,15.84l-2.4-10.08
	L971.06,619.5z"/>
<path class="st0" d="M980.18,621.42c0,0,0.85-5.98,1.2-8.88c0.35-2.9,0.96-8.16,0.96-8.16l7.68-10.32c0,0,0.42,5.28,0.24,6.96
	c-0.18,1.68-0.28,11.08-0.72,12.96c-0.44,1.88-1.76,9.59-1.92,11.28s-1.39,7.33-1.68,8.64c-0.29,1.31-0.72,2.4-0.72,2.4
	L980.18,621.42z"/>
<path class="st0" d="M1008.98,584.94c0,0,0.19-5.34,0.24-6.96c0.05-1.62-0.72-11.76-0.72-11.76l5.52-15.36c0,0,1.03,7.1,0.96,12
	c-0.07,4.9,0,10.88,0,13.44s-0.08,10.08-0.24,12.24c-0.16,2.16-0.24,6.72-0.24,6.72L1008.98,584.94z"/>
<path class="st0" d="M989.54,470.7l4.32,12l4.32-14.88c0,0-1.38-3.54-1.68-4.56s-1.57-4.2-3.12-5.04c-1.55-0.84-4.02-2.09-4.8-0.72
	s-1.19,3.42-0.48,6.24c0.71,2.82,1.2,3.24,1.2,4.32C989.3,469.14,989.54,470.7,989.54,470.7z"/>
<path class="st0" d="M1015.94,492.3c0,0-0.01,0.48,1.44,1.92c1.45,1.44,2.15,2.34,3.12,3.6s1.68,1.68,1.68,1.68s0.13,0.92-1.44,3.12
	c-1.57,2.2-18.48,12.48-18.48,12.48l3.84-6.24l5.04-7.68L1015.94,492.3z"/>
<path class="st0" d="M977.54,469.98c0,0,0.04,6.57,0,8.16c-0.04,1.59,0.16,5.46,0.24,6.72c0.08,1.26,0,2.16,0,2.16l3.84,9.84
	l1.92-10.32c0,0-0.12-6.35-0.24-7.68c-0.12-1.33-0.48-8.16-0.48-8.16s-3.05-0.23-3.6-0.24
	C978.67,470.45,977.54,469.98,977.54,469.98z"/>
<path class="st0" d="M942.26,619.26c0,0-0.5-12.05-0.72-14.88s-1.44-13.68-1.44-13.68l7.68,9.84l0.72,12L942.26,619.26z"/>
<path class="st0" d="M960.02,589.26c0,0,2.78-7.78,3.36-9.36c0.58-1.58,4.76-10.01,5.28-11.04c0.52-1.03,3.36-6.8,4.08-8.4
	c0.72-1.6,2.71-6.57,3.36-8.4s2.64-7.2,2.64-7.2l1.68,13.44c0,0,0.65-0.16-2.4,5.76c-3.05,5.92-5.04,8.88-5.04,8.88L960.02,589.26z"
	/>
<path class="st0" d="M982.58,604.38c0,0,0.15-13.52,0.24-15.36s0-10.08,0-10.08l7.2,8.88v6.48L982.58,604.38z"/>
<path class="st0" d="M1008.5,565.74c0,0-0.76-11.27-0.72-12.96c0.04-1.69-0.24-8.88-0.24-8.88l4.56-12l1.92,19.68L1008.5,565.74z"/>
<path class="st0" d="M1002.5,514.86l-4.56,5.76l6.72,1.44c0,0,0.29,0.05,1.68-1.68c1.39-1.73,5.24-5.25,6.96-7.44
	c1.72-2.19,3.47-4.59,4.32-5.76c0.85-1.17,2.64-3.84,2.64-3.84L1002.5,514.86z"/>
<path class="st0" d="M977.78,487.5c0,0,0.67,4.32,0.72,5.76c0.05,1.44,2.09,9.65,2.4,11.28c0.31,1.63,1.21,5.77,1.92,7.68
	c0.71,1.91,1.79,5.78,1.92,6.48s0.13,1.23,0.24,1.68c0.11,0.45,0.88-1.81,1.2-2.64s1.07-3.71,1.2-4.32
	c0.13-0.61,0.24-4.08,0.24-4.08s-1.39-4.5-1.92-7.2c-0.53-2.7-1.4-8.11-1.44-9.12c-0.04-1.01-0.72-6-0.72-6l-1.68,9.36L977.78,487.5
	z"/>
<path class="st0" d="M989.54,470.7c0,0,0.62,11.74,0.48,13.2c-0.14,1.46-0.24,9.84-0.24,9.84l6,16.08c0,0,1.4-11.49,1.44-14.4
	c0.04-2.91,0.53-11.1,0.72-14.16s0.11-7.66,0.24-9.12s0-4.08,0-4.08l-4.32,14.16L989.54,470.7z"/>
<path class="st0" d="M947.78,600.3c0,0-1.33-11.38-1.92-14.16s-3.6-16.56-3.6-16.56l-4.08,9.6c0,0,1.03,5.18,1.2,7.2
	s0.72,4.8,0.72,4.8L947.78,600.3z"/>
<path class="st0" d="M949.22,635.1l2.64-15.84l1.92,12.72c0,0,0.76-20.2,0.96-21.6s1.6-8.39,1.92-9.6c0.32-1.21-2.64-18-2.64-18
	s-2.95,6.61-3.6,8.4c-0.65,1.79-1.99,6.56-2.16,7.2s-0.48,1.92-0.48,1.92L949.22,635.1z"/>
<path class="st0" d="M983.06,578.94l-0.72-7.2l5.28-11.28c0,0,2.14,9.52,2.16,12c0.02,2.48,0.37,7.92,0.48,10.08
	c0.11,2.16-0.24,5.04-0.24,5.04L983.06,578.94z"/>
<path class="st0" d="M1007.54,543.42c0,0-0.54-9.93-0.96-12.96s-0.48-9.84-0.48-9.84s3.98-3.43,4.08-3.84
	c0.1-0.41,1.09-1.15,1.2-1.44c0.11-0.29,0.64,5.44,0.72,7.44c0.08,2-0.07,3.95,0,6c0.07,2.05,0,3.36,0,3.36L1007.54,543.42z"/>
<path class="st0" d="M1004.66,522.06c0,0-6.69,9.31-7.92,10.56c-1.23,1.25-4.91,4.94-5.76,6c-0.85,1.06-3.12,3.12-3.12,3.12
	s1.17-4.64,1.44-6.24s1.26-4.51,1.68-6.48c0.42-1.97,0.96-3.84,0.96-3.84s1.4-0.62,2.64-1.68c1.24-1.06,3.36-3.12,3.36-3.12
	L1004.66,522.06z"/>
<path class="st0" d="M938.18,579.18c0,0-1.8-8.15-2.4-9.6c-0.6-1.45-2.93-7.17-3.6-8.4s-2.16-6.48-2.16-6.48s1.91-0.49,3.12-1.44
	c1.21-0.95,2.29-1.99,2.88-2.64c0.59-0.65,0.72-0.72,0.72-0.72s1.71,2.88,2.4,5.76c0.69,2.88,2.28,9.63,2.64,11.04
	c0.36,1.41,0.48,3.36,0.48,3.36L938.18,579.18z"/>
<path class="st0" d="M957.14,599.1c0,0,1.36-4.31,1.68-5.28s4.24-13.34,4.8-14.64c0.56-1.3,2.49-4.88,3.12-6.24s1.92-4.08,1.92-4.08
	l-11.04,2.88c0,0-0.14,1.06-0.96,2.88s-1.75,4.47-2.16,5.52s-0.48,2.88-0.48,2.88L957.14,599.1z"/>
<path class="st0" d="M982.34,571.74c0,0-0.76-6.35-1.2-9.12c-0.44-2.77-0.72-3.12-0.72-3.12s1.91-4.45,2.88-6.48
	s2.16-3.84,2.16-3.84s0.58,1.57,0.72,2.4s1.07,3.4,1.2,5.04s0.24,4.08,0.24,4.08L982.34,571.74z"/>
<path class="st0" d="M990.02,493.98c0,0-2.2,17.04-2.4,18s-1.65,6.89-2.16,8.16c-0.51,1.27-1.37,7.48-1.92,9.6
	c-0.55,2.12-1.57,5.14-1.92,6.48c-0.35,1.34-3.12,9.12-3.12,9.12l2.16,13.68c0,0,4.19-9.09,4.56-10.32s2.27-5.51,2.64-6.96
	s3.67-14.91,3.84-15.84c0.17-0.93,2.29-8.21,2.88-10.32c0.59-2.11,0.96-6.24,0.96-6.24L990.02,493.98z"/>
<path class="st0" d="M958.34,571.5l10.8-2.88c0,0,3-7.21,3.6-8.4c0.6-1.19,4.02-9.55,4.32-10.56c0.3-1.01,2.39-7.31,2.88-8.4
	s1.68-5.04,1.68-5.04s-5.01,5.75-5.52,6.24c-0.51,0.49-2.27,3.36-3.12,4.56s-2.64,4.7-3.12,5.52c-0.48,0.82-2.64,4.96-3.36,6
	c-0.72,1.04-4.99,7.99-5.52,8.88C960.45,568.31,958.34,571.5,958.34,571.5z"/>
<path class="st0" d="M942.74,500.46c0,0,1.46-3.04,2.4-4.32c0.94-1.28,2.88-3.12,2.88-3.12s-2.13-7.2-3.12-10.08
	c-0.99-2.88-3.02-11.14-3.12-12.24c-0.1-1.1-8.88-12.96-8.88-12.96s0.8,6.13,1.2,7.92s1.24,3.62,1.92,4.8
	c0.68,1.18,2.75,4.92,3.12,6c0.37,1.08,0.98,4.84,0.96,6.24c-0.02,1.4-0.32,6.81-0.48,7.68s0.19,3.22,0.48,4.32
	c0.29,1.1,0.8,2.25,1.2,3.36S942.74,500.46,942.74,500.46z"/>
<path class="st0" d="M931.46,429.42c0,0,2.15,0.57,3.6,0.48c1.45-0.09,2.88-0.24,2.88-0.24s-0.1,3.65,0,5.52
	c0.1,1.87,0.36,6.7,0.48,7.92c0.12,1.22,0.48,4.8,0.48,4.8l-7.68-7.68c0,0-0.06-4.97,0-6.24
	C931.28,432.71,931.46,429.42,931.46,429.42z"/>
<path class="st0" d="M933.14,458.22c0,0-1.07-6.33-1.2-8.64c-0.13-2.31-0.72-9.12-0.72-9.12l7.44,7.2c0,0,1.47,10.23,1.68,12.96
	c0.21,2.73,1.2,9.36,1.2,9.36L933.14,458.22z"/>
<path class="st0" d="M924.5,573.42c0,0-0.08-7.31,0-7.92c0.08-0.61,0.72-8.16,0.72-8.16s1.99-1.04,2.64-1.44
	c0.65-0.4,2.16-0.96,2.16-0.96s1.21,3.81,1.44,4.8c0.23,0.99-3.76,7.82-4.32,8.64S924.5,573.42,924.5,573.42z"/>
<path class="st0" d="M925.7,526.62c0,0,2.85-0.56,4.32-0.48c1.47,0.08,0.94-4.24,1.2-6s2.15-12.08,2.4-13.44
	c0.25-1.36,1.98-10.04,1.92-10.56c-0.06-0.52-1.1-0.29-3.6,0.48c-2.5,0.77-3.54,1.12-3.84,2.16c-0.3,1.04-0.29,8.69-0.48,9.84
	c-0.19,1.15-1.39,11.55-1.68,12.96C925.65,522.99,925.7,526.62,925.7,526.62z"/>
<path class="st0" d="M925.94,463.98c0,0,3.31,1.46,4.08,1.92c0.77,0.46-0.6-4.95-1.2-6.96c-0.6-2.01-0.96-5.52-0.96-5.52
	s-1.01-0.28-2.16-0.24c-1.15,0.04-0.38,4.48-0.24,6.24C925.6,461.18,925.94,463.98,925.94,463.98z"/>
<path class="st0" d="M936.74,550.14c0.25,0.87,1.57,3.25,2.16,5.52c0.59,2.27,0.96,2.88,0.96,2.88s2.16-3.2,3.6-6.24
	c1.44-3.04,5.54-13.13,6.48-15.36c0.94-2.23,2.95-7.77,2.88-8.16c-0.07-0.39-2.04-1.62-3.84-2.16c-1.8-0.54-1.92,0-1.92,0
	s-1.91,5.24-2.4,6c-0.49,0.76-1.32,2.47-1.68,2.88c-0.36,0.41-0.13,1.86-0.96,3.84c-0.83,1.98-1.21,4.02-2.16,5.52
	C938.91,546.36,936.49,549.27,936.74,550.14z"/>
<path class="st0" d="M957.62,571.98c0,0,5.41-7.25,5.76-8.4c0.35-1.15-0.85-9.67-1.44-13.44c-0.59-3.78-1.76-12.13-2.4-14.64
	c-0.64-2.51-2.4-7.92-2.4-7.92s-2.52-0.27-3.6-0.24c-1.08,0.03-1.08,2.34-1.2,3.6c-0.12,1.26-0.04,3.39,0.24,4.32
	c0.28,0.93,3.26,15.66,3.36,18S957.62,571.98,957.62,571.98z"/>
<path class="st0" d="M942.98,681.9c0,0,3.01,0.52,5.76,0c2.75-0.52,5.2-2.13,7.2-2.16s4.83-0.61,7.2-0.48
	c2.37,0.13,5.91,0.26,7.68,0.24c1.77-0.02-5.76-7.2-5.76-7.2l-8.4-3.12l1.44,5.76l-3.84,1.44l-4.32-5.28l-1.68,6.24L942.98,681.9z"
	/>
<path class="st0" d="M948.26,677.1l1.68-5.76l2.88-4.8l0.96-3.36c0,0-1.86-2.42-2.16-3.84s-1.4-5.62-1.68-7.2
	c-0.28-1.58-9.6-8.64-9.6-8.64s-0.77,7.03-0.72,9.12c0.05,2.09-0.25,10.26,0,12c0.25,1.74,0.72,3.39,0.72,4.08
	c0,0.69-0.96,1.92-0.96,1.92l-0.72,5.04l1.68,2.16L948.26,677.1z"/>
<path class="st0" d="M949.94,671.58l4.32,4.56l4.08-1.68l-1.44-5.04l7.44,2.64l6.24-5.52c0,0-2.12-3.57-2.88-6.48
	s-1.71-7.39-1.92-8.64c-0.21-1.25-3.36,7.92-3.36,7.92l-8.4,3.6L949.94,671.58z"/>
<path class="st0" d="M964.58,672.06l6.72,7.2c0,0,3.71-0.32,5.28-1.2c1.57-0.88,4.84-2.95,6.24-4.56s4.47-6.21,5.28-7.68
	c0.81-1.47,2.05-4.83,2.4-6c0.35-1.17,0.48-3.36,0.48-3.36v-1.2c0,0-1.23,1.85-2.16,3.12c-0.93,1.27-5.2,6.17-6.72,7.92
	c-1.52,1.75-3.66,4.66-4.56,5.28C976.64,672.2,964.58,672.06,964.58,672.06z"/>
<path class="st0" d="M964.58,672.06l5.52-5.76c0,0-1.38-2.91-1.68-3.84c-0.3-0.93,0.02-4.16,0.72-6c0.7-1.84,2.6-5.89,3.36-7.92
	c0.76-2.03,2.46-4.68,2.88-6c0.42-1.32,0.8-3.15,1.2-5.28c0.4-2.13,1.86-6.61,2.16-8.16c0.3-1.55,1.28-7,1.44-7.92
	c0.16-0.92,5.04,16.08,5.04,16.08s-3.52,13.02-3.84,14.64c-0.32,1.62-1,5.43-1.68,7.2c-0.68,1.77-2.88,5.26-3.12,6.48
	c-0.24,1.22,1.2,6,1.2,6L964.58,672.06z"/>
<path class="st0" d="M977.78,671.34c0,0,15.45-18.27,16.56-20.4c1.11-2.13,5.62-10.28,6.72-12.72c1.1-2.44,5.37-12.06,6.24-14.16
	c0.87-2.1,3.94-11.26,4.32-12.72s-15.12,15.12-15.12,15.12s-5.41,12.31-6.24,13.92c-0.83,1.61-4.21,10.43-6,12.96
	c-1.79,2.53-4.85,7.15-5.28,7.68c-0.43,0.53-1.64,2.18-1.92,3.36c-0.28,1.18-0.24,2.88-0.24,2.88s-0.01,0.52,0.24,1.44
	C977.31,669.62,977.78,671.34,977.78,671.34z"/>
<path class="st0" d="M978.74,660.78c0,0,6.61-9.05,8.16-12.96s2.69-10.06,3.12-12.48c0.43-2.42,3.41-16.67,4.08-19.68
	c0.67-3.01,2.61-13.28,2.64-14.4c0.03-1.12,0-2.88,0-2.88s-3.12,6.37-4.56,8.88s-2.65,5.94-3.12,8.16c-0.47,2.22-2,12.68-2.16,13.92
	c-0.16,1.24-2.67,10.8-3.12,12.96c-0.45,2.16-2.74,9.94-3.36,12.24C979.8,656.84,978.74,660.78,978.74,660.78z"/>
<path class="st0" d="M1005.86,509.34c0,0,4.97-7.42,5.28-8.4c0.31-0.98-2.59-12.93-3.12-17.28s-1.62-9.49-1.92-13.2
	c-0.3-3.71-0.72-7.2-0.72-7.2s-2.28,2.96-3.12,3.6c-0.84,0.64-1.2,0.96-1.2,0.96s0.85,7.54,0.96,10.8
	c0.11,3.26,0.68,11.02,1.2,16.32C1003.74,500.24,1005.86,509.34,1005.86,509.34z"/>
<path class="st0" d="M989.78,612.54l7.2-14.64c0,0,4.11-6.8,5.04-8.4c0.93-1.6,4.59-8.86,5.28-10.32s1.92-3.12,1.92-3.12
	l-0.72-10.08c0,0-4.42,7.85-6,10.32c-1.58,2.47-5.91,10.63-6.72,12s-3.07,6.02-3.6,7.2c-0.53,1.18-1.8,2.72-1.92,5.04
	C990.14,602.86,989.78,612.54,989.78,612.54z"/>
<path class="st0" d="M1014.74,553.74l0.48,9.6c0,0,2.12-2.28,2.88-4.08c0.76-1.8,4.57-9.96,5.04-11.04
	c0.47-1.08,3.85-8.52,4.08-9.36c0.23-0.84,0.16-3.1-0.96-3.6c-1.12-0.5-2.1-1.37-2.64-1.44c-0.54-0.07-1.71,3.22-1.92,4.08
	c-0.21,0.86-2.4,6.19-2.88,7.44c-0.48,1.25-2.03,5.44-2.4,6C1016.05,551.9,1014.74,553.74,1014.74,553.74z"/>
<path class="st0" d="M965.3,649.74c0,0,2.34-4.17,2.88-5.28s2.14-9.29,2.16-10.8c0.02-1.51,0.44-12.8,0.48-14.16
	c0.04-1.36,0.08-15.45,0-17.52c-0.08-2.07-0.36-8.98-0.48-10.08c-0.12-1.1-0.96-9.6-0.96-9.6s-2.34,6.5-2.64,7.2s-0.1,3.24,0,4.8
	c0.1,1.56,0.7,9.42,0.72,10.8c0.02,1.38,0.01,10.46,0,12.24c-0.01,1.78,0.39,11.39,0.24,13.92c-0.15,2.53-1.26,9.98-1.44,11.28
	c-0.18,1.3-1.68,3.6-1.68,3.6L965.3,649.74z"/>
<path class="st0" d="M994.34,590.7c0,0-0.04-19.49-0.24-21.36c-0.2-1.87-1.61-17.19-1.68-18.96c-0.07-1.77-1.14-11.42-1.2-11.52
	c-0.06-0.1,2.27-3.27,2.88-3.84c0.61-0.57,1.37-1.36,1.68,2.4c0.31,3.76,1.37,11.74,1.44,13.2c0.07,1.46,1,12.79,0.96,14.4
	c-0.04,1.61,0.01,11.33,0,12.96c-0.01,1.63,0.24,5.28,0.24,5.28L994.34,590.7z"/>
<path class="st0" d="M963.38,563.58c0,0,5.38-8.85,5.52-9.36c0.14-0.51-2.31-9.21-2.64-11.28c-0.33-2.07-1.3-11.28-1.44-12
	s-0.48-5.52-0.48-5.52s-3.33,0.47-5.04,0.96c-1.71,0.49-1.92,1.2-1.92,1.2s2.2,7.13,2.4,8.64c0.2,1.51,2.96,15.82,2.88,17.04
	C962.58,554.47,963.38,563.58,963.38,563.58z"/>
<path class="st0" d="M975.86,542.94c0,0-2.7-7.12-3.84-9.12c-1.14-2-7.3-11.41-8.4-12.48c-1.1-1.07-2.6-3.24-3.6-4.32
	c-1-1.08-1.05-3.12-0.72-3.84c0.33-0.72,2.96-3.09,3.84-2.88c0.88,0.21,5.64,3.85,6.48,4.8c0.84,0.95,6.05,9.12,6.96,10.8
	c0.91,1.68,3.6,7.59,3.84,8.16c0.24,0.57,0.96,1.92,0.96,1.92s-0.48,1.17-0.72,1.44C980.42,537.69,975.86,542.94,975.86,542.94z"/>
<path class="st0" d="M952.82,490.62c0.86-0.19,2.66-0.59,3.6-0.72c0.94-0.13,1.68-0.24,1.68-0.24s-0.33-2.53-0.96-4.32
	c-0.63-1.79-1.51-5.53-1.68-6.72c-0.17-1.19-0.72-1.92-0.72-1.92s-1.61-0.32-3.12,0s-1.44,0.48-1.44,0.48s0.77,3.24,0.96,4.56
	c0.19,1.32,1.07,4.95,1.2,6C952.47,488.79,951.96,490.81,952.82,490.62z"/>
<path class="st0" d="M959.3,488.46c0.06-0.8,1.38-5.47,1.44-6.48s1.09-11.12,0.96-12.24c-0.13-1.12-0.51-10.13-0.72-11.04
	c-0.21-0.91-0.41-5.4-0.48-6c-0.07-0.6-0.08-2.56,0.72-3.36c0.8-0.8,2.07-2.25,3.12-2.16c1.05,0.09,2.45-0.56,2.64,6.48
	c0.19,7.04,0.46,14.09,0.48,15.6c0.02,1.51-0.24,6.96-0.48,8.88c-0.24,1.92-0.96,8.08-1.44,9.6c-0.48,1.52-0.96,2.64-0.96,2.64
	S959.24,489.26,959.3,488.46z"/>
<path class="st0" d="M1001.54,441.9c0.44,0.7,2.81,5.43,3.6,6.72s1.68,1.92,1.68,1.92s1.02-2.81,1.2-3.84
	c0.18-1.03,0.76-3.4,1.2-4.56c0.44-1.16,0.72-2.16,0.72-2.16s-3.91-1.79-4.8-2.4c-0.89-0.61-1.44-0.72-1.44-0.72
	S1001.1,441.2,1001.54,441.9z"/>
<path class="st0" d="M973.46,430.38c0.6,0.48,1.7,2.44,2.64,3.6c0.94,1.16,2.16,3.12,2.16,3.12s0.08-4.75,0.24-6.24
	c0.16-1.49,1.08-7.78,1.2-8.88c0.12-1.1,0.72-5.52,0.72-5.52s-2.37,0.19-3.84,0c-1.47-0.19-1.68,0.96-1.68,0.96
	s-0.49,4.31-0.48,5.52C974.43,424.15,972.86,429.9,973.46,430.38z"/>
<path class="st0" d="M915.14,491.82c0,0,0.18,0-1.68-0.72c-1.86-0.72-3.44-0.93-4.08-2.64c-0.64-1.71-0.45-4.15,0.72-4.8
	c1.17-0.65,3.36-1.79,6.48-1.68c3.12,0.11,7.37,0.58,9.12,1.68c1.75,1.1,4.88,3,5.04,4.56c0.16,1.56,0.49,3.41-0.48,4.56
	c-0.97,1.15-3.28,2.56-4.56,2.4s-4.56-1.44-4.56-1.44"/>
<path class="st0" d="M950.66,475.74c-1.25-0.39-2.17-0.79-3.36-1.44s-1.75-2.44-1.68-3.84c0.07-1.4,1.04-3.01,1.92-4.56
	c0.88-1.55,1.13-2.82,2.16-2.4c1.03,0.42,3.44,1.12,4.8,0.96c1.36-0.16,2.44-0.02,3.36,0c0.92,0.03,1.32,1.52,1.44,2.88
	c0.12,1.36-0.09,5.02-0.72,6c-0.63,0.98-2.22,3.01-3.6,2.88C953.6,476.09,951.91,476.13,950.66,475.74z"/>
<path class="st0" d="M989.54,470.46c0,0-2.59,0.66-4.8,0.48s-6.76-0.46-7.44-1.2c-0.68-0.74-2.33-3.9-1.92-6.24
	c0.41-2.34,2.56-4.53,4.56-5.76c2-1.23,7.35-3.65,8.88-3.84c1.53-0.19,7.8-1.13,9.6-0.72c1.8,0.41,7.1,3.25,7.2,5.04
	s0.26,4-0.24,4.8c-0.5,0.8-3.96,4.12-4.56,4.56c-0.6,0.44-2.88,0.48-2.88,0.48s-0.54-1.97-0.96-3.6c-0.42-1.63-1.71-4.89-2.88-5.76
	c-1.17-0.87-3.8-2.35-4.8-1.68c-1,0.67-2.12,2.54-1.68,4.8s1.15,3.4,1.44,5.04C989.35,468.5,989.54,470.46,989.54,470.46z"/>
<path class="st0" d="M961.22,463.02c0,0-0.88,1.08-2.4,1.2s-3,0.41-5.04,0c-2.04-0.41-4.18,0.15-4.8-0.72
	c-0.62-0.87-1.69-4.13-1.92-6c-0.23-1.87,1.09-4.38,2.64-6.48c1.55-2.1,4.94-5.05,8.64-6.48c3.7-1.43,9.14-2.12,10.56-1.92
	c1.42,0.2,5.17,0.34,6,0.96c0.83,0.62,1.92,1.44,1.92,1.44s-1.05,0.91-1.68,3.12c-0.63,2.21-1.68,5.18-1.68,6.72
	c0,1.54-0.27,3.8-0.24,4.32c0.03,0.52-1.34,1-2.4,1.2s-1.74,0.29-2.4,0.48c-0.66,0.19-1.2,0-1.2,0s0.19-2.81,0-4.56
	c-0.19-1.75-0.02-5.31-0.24-6.24c-0.22-0.93-0.49-2.88-1.44-2.88c-0.95,0-2.85,0.47-3.6,1.2c-0.75,0.73-1.29,2.69-1.44,4.08
	c-0.15,1.39,0.41,3.55,0.48,5.04C961.05,458.99,961.22,463.02,961.22,463.02z"/>
<path class="st0" d="M1003.7,436.62c-1.03-0.77-4.06-1.71-5.04-3.84c-0.98-2.13-2.76-5.55-1.68-7.44c1.08-1.89,4.44-5.61,6-6.48
	c1.56-0.87,5.17-3.04,7.2-3.36c2.03-0.32,7.59,0.02,8.88,0.96s4.46,6.15,4.32,9.6c-0.14,3.45,0.03,8.25-3.6,11.04
	c-3.63,2.79-6.9,2.94-7.68,2.88c-0.78-0.06-1.92,0-1.92,0S1004.73,437.39,1003.7,436.62z"/>
<path class="st0" d="M1023.62,533.58c-1.01-0.91-2.85-2.88-3.36-3.84c-0.51-0.96-0.63-4.19,0.24-5.28s3.57-3.71,4.8-4.32
	c1.23-0.61,5.5-1.97,6.72-2.16c1.22-0.19,5.67-0.21,5.76,2.64c0.08,2.85,0.34,5.43,0.24,7.68c-0.1,2.25-0.93,5.62-1.92,6.72
	c-0.99,1.1-3.02,2.58-4.56,2.16c-1.54-0.42-3.87-0.89-4.32-1.2C1026.77,535.67,1024.63,534.49,1023.62,533.58z"/>
<path class="st0" d="M1015.94,492.78c0.07,0.1,1.81,1.88,3.6,3.6c1.79,1.72,0.46,2.39,2.64,3.12c2.18,0.73,4.28,2.82,7.2,1.92
	s4.05-0.65,5.52-1.92c1.47-1.27,4.02-5.85,4.8-7.44c0.78-1.59,2.63-5.79,3.36-7.44c0.73-1.65,1.64-6.57,1.2-7.44
	c-0.44-0.87-1.81-3.27-4.08-4.32c-2.27-1.05-11.04,6.24-11.04,6.24l5.28,12C1034.42,491.1,1015.87,492.68,1015.94,492.78z"/>
<path class="st0" d="M1015.94,493.02c0,0-1.04-3.07-1.68-5.76c-0.64-2.69-0.05-7.93,0.24-9.12c0.29-1.19,4.12-3.85,5.76-4.56
	c1.64-0.71,6.11-2.25,8.64-2.4c2.53-0.15,7.32-0.14,8.4,0.24c1.08,0.38,2.16,1.2,2.16,1.2l-10.32,6.48l5.28,11.76L1015.94,493.02z"
	/>
<path class="st0" d="M976.82,445.02c0.63-1.12,0.96-2.67,1.68-3.6c0.72-0.93,0.72-1.68,0.72-1.68s-0.42-2.74-1.2-3.36
	c-0.78-0.62-3.69-5.91-5.28-6.96s-6.4-4.02-8.64-4.32s-6.28,0.41-8.16,1.44s-4.8,2.53-5.76,3.84c-0.96,1.31-3.33,6.48-4.08,8.4
	c-0.75,1.92-1.42,5.37-1.68,7.68c-0.26,2.31,0.35,7.24,0.72,9.12c0.37,1.88,1.52,4.6,2.16,5.52c0.64,0.92,1.44,1.92,1.44,1.92
	s-1.73-4-1.92-5.28c-0.19-1.29,1.47-4.87,2.4-6c0.93-1.13,4.65-4.99,6.24-5.76c1.59-0.77,6.31-2.76,7.68-2.88s4.9-0.54,6.72-0.48
	c1.82,0.06,4.62,0.03,5.28,0.72C975.8,444.03,976.19,446.14,976.82,445.02z"/>
<path class="st0" d="M919.7,498.06c0,0,1.61,0.53,3.36,0.48c1.75-0.05,4.31,0.14,5.28-0.24c0.97-0.38,4.42-1.99,6-2.64
	c1.58-0.65,4.53-4.02,4.8-4.8c0.27-0.78,0.83-4.26,0.96-6.24c0.13-1.98,0.42-5.29-0.96-7.68c-1.38-2.39-2.49-5.77-4.08-7.44
	c-1.59-1.67-3.37-3.34-4.8-3.6c-1.43-0.26-2.3-1.04-4.08-1.2c-1.78-0.16-5.9,0.21-7.92,0.72c-2.02,0.51-5.32,1.45-6.48,2.16
	c-1.16,0.71-4.79,2.59-5.52,3.84s-2.58,4.78-2.88,6.96c-0.3,2.18-1.03,6.92,0.48,9.84c1.51,2.92,4.11,4.83,5.76,5.76
	s2.67,1.02,3.12,1.44c0.45,0.42,0.72,0,0.72,0l1.44-3.84c0,0-0.12-0.29-1.2-0.48s-2.04-0.39-2.88-0.96
	c-0.84-0.57-1.61-2.23-1.68-3.6c-0.07-1.37,1.41-3.71,3.36-4.08c1.95-0.37,5.65-0.71,7.44-0.48c1.79,0.23,4.9,0.91,5.76,1.44
	c0.86,0.53,3.69,1.72,4.32,3.12s1.05,3.01,0.96,4.08c-0.09,1.07-0.33,2.34-1.68,3.12c-1.35,0.78-2.02,1.31-3.12,1.44
	c-1.1,0.13-5.04-1.44-5.04-1.44L919.7,498.06z"/>
<path class="st0" d="M892.58,590.94c0,0,1.34,1,2.5,1.83c0.71,0.5,1.35,0.94,1.58,1.05c0.62,0.29,1.52,0.78,2.4,0.48
	c0.88-0.3,1.88-0.63,2.88-1.68s2.57-3.97,3.12-5.28c0.55-1.31,1.86-7.97,1.68-9.36s-0.31-3.97-2.64-5.52
	c-2.33-1.55-4.42-1.12-6-0.72c-1.58,0.4-3.14,0.22-4.56,1.44c-1.42,1.22-4.96,4.46-5.76,5.76c-0.8,1.3-1.16,3.4-0.72,5.28
	c0.44,1.88,2.22,5.03,3.6,5.76C892.04,590.71,892.58,590.94,892.58,590.94z"/>
<path class="st0" d="M880.82,482.94c0,0-0.27,0.3-0.96,1.2c-0.69,0.9-0.95,2.08-1.92,2.88c-0.97,0.8-1.63,1.41-2.64,1.2
	s-2.89-2.95-3.36-4.08c-0.47-1.13-1.73-5.97-1.68-7.44s1.04-4.29,3.36-4.56s5.76,0.61,6.72,1.2c0.96,0.59,2.26,1.48,1.92,4.08
	s-0.08,3.11-0.48,3.84C881.38,481.99,880.82,482.94,880.82,482.94z"/>
<path class="st0" d="M894.98,469.98l5.28,2.4c0,0,1.95,0.73,3.36,0.24c1.41-0.49,2.39-0.92,3.36-1.92s2.87-2.01,3.84-2.64
	c0.97-0.63,1.72-1.01,2.16-1.2c0.44-0.19,1.68-5.04,1.68-5.04l-9.36-6.96l-0.72,9.36L894.98,469.98z"/>
<path class="st0" d="M925.22,453.42c0,0-2.65-1.01-3.84-1.92c-1.19-0.91-3.53-2.77-4.08-4.8c-0.55-2.03,0.12-5.46,0.72-6.96
	c0.6-1.5,4.17-6.21,5.04-6.72c0.87-0.51,3.85-1.05,4.8-0.48s2.77,2.29,2.88,2.64c0.11,0.35,0.48,0.96,0.48,0.96s0.34,8.86,0.48,9.6
	c0.14,0.74,0.48,6,0.48,6s-1.55,1.05-2.64,1.2s-1.68,0.48-1.68,0.48H925.22z"/>
<path class="st0" d="M975.14,416.94c0,0-1.55-0.47-2.88-1.92c-1.33-1.45-2.96-4.3-1.68-7.92c1.28-3.62,2.85-6.46,3.6-7.44
	s1.76-1.6,2.64-1.92c0.88-0.32,3.12,0.8,4.56,1.92s4.41,5.07,4.32,6.24c-0.09,1.17,0.32,5.27-0.96,7.2
	c-1.28,1.93-2.9,2.93-3.36,3.12c-0.46,0.19-0.96,0.24-0.96,0.24L975.14,416.94z"/>
<path class="st0" d="M965.3,523.98c0,0,0.22,0.84-0.72,1.2s-6.43,1.79-8.64,2.16s-3.98,0.36-5.28-0.24c-1.3-0.6-2.83-3.76-3.12-5.04
	s-0.71-8.49,3.12-12.96c3.83-4.47,7.82-8.78,13.68-10.08c5.86-1.3,10.34-1.09,12.24,0.24c1.9,1.33,2.73,2.75,2.64,5.52
	c-0.09,2.77-0.17,5.26-1.44,7.2c-1.27,1.94-3.7,4.93-4.32,5.52c-0.62,0.59-1.44,1.2-1.44,1.2s-1.81-3.41-3.6-4.8
	c-1.79-1.39-4.24-3.12-4.8-3.36s-1.76-0.16-2.4,0.48c-0.64,0.64-1.64,1.36-1.92,2.4c-0.28,1.04-0.11,2.48,0.48,3.36
	c0.59,0.88,2.27,2.48,2.88,3.36c0.61,0.88,2.64,3.6,2.64,3.6"/>
<path class="st0" d="M916.1,555.9c0,0-2.35-2.15-2.88-4.08c-0.53-1.93-0.81-10.62-0.48-12s2-3.99,2.64-4.8
	c0.64-0.81,3.37-5.34,6-6.72s4.32-1.92,4.32-1.92s2.92-0.21,3.84-0.24c0.92-0.03,1.81-0.03,2.88,0.24
	c1.07,0.27-11.52,30.72-11.52,30.72s-1.8-0.08-2.64-0.48C917.42,556.22,916.1,555.9,916.1,555.9z"/>
<path class="st0" d="M894.74,470.22c0,0-3.83-3.27-5.04-4.56s-3.82-6.28-3.36-8.16c0.46-1.88,3.66-8.45,6-10.8
	c2.34-2.35,4.11-3.73,5.28-4.32s6.72,21.6,6.72,21.6L894.74,470.22z"/>
<path class="st0" d="M931.7,429.66c0,0-3.58-0.73-5.28-1.92c-1.7-1.19-4.31-4.25-4.56-6c-0.25-1.75,0.63-7.2,1.68-9.84
	c1.05-2.64,3.1-4.78,4.08-5.76s4.85-3.3,6.24-4.08c1.39-0.78,1.64-0.76,3.36-0.96s4.77,0.85,5.52,1.68s4.21,5.77,4.32,8.88
	s0.49,8.72-0.24,11.04s-4.76,5.99-6,6.48c-1.24,0.49-3.12,0.48-3.12,0.48H931.7z"/>
<path class="st0" d="M920.9,556.62c0,0,3.33,0.86,4.56,0.48c1.23-0.38,6.08-2.89,7.2-3.6c1.12-0.71,4.56-4.02,6.24-6.96
	c1.68-2.94,3.64-8.76,3.84-10.08s-0.58-4.71-2.4-6.24c-1.82-1.53-5.6-3.23-6.48-3.36c-0.88-0.13-1.2-0.48-1.2-0.48L920.9,556.62z"/>
<path class="st0" d="M951.62,527.58c0,0-1.83-0.01-4.32-2.16c-2.49-2.15-6.01-8.27-6.72-11.28c-0.71-3.01,0.18-11.37,0.96-12.72
	c0.78-1.35,5.16-7.76,6.72-8.64c1.56-0.88,7.36-3.32,11.04-3.36c3.68-0.04,8.41,1.59,10.32,2.4c1.91,0.81,6.8,5.68,7.44,6.72
	s1.2,2.16,1.2,2.16s-1.96-3.15-7.92-2.64c-5.96,0.51-11.13,2.49-13.2,4.32s-7.54,6.15-8.64,10.8s-2.27,7.6-0.24,10.56
	S951.62,527.58,951.62,527.58z"/>
<path class="st0" d="M897.86,442.14c0,0,2.69-1.11,4.08-1.2s6.14,0.06,7.44,0.96c1.3,0.9,3.6,2.28,4.32,4.32s1.9,6.47,1.92,8.64
	c0.02,2.17-0.96,6.96-0.96,6.96l-9.36-6.96l-0.72,9.12L897.86,442.14z"/>
<path class="st0" d="M975.38,465.66c0,0-2.26-4.44-2.16-6.72c0.1-2.28,0.62-9.12,2.16-11.76c1.54-2.64,3-6.08,3.84-6.96
	s4.4-3.86,7.44-4.08c3.04-0.22,10.16,1.08,12.48,3.6c2.32,2.52,3.57,4.3,4.56,6.24s2.17,2.84,2.88,5.28
	c0.71,2.44,1.2,5.83,0.96,7.68c-0.24,1.85-1.92,3.6-1.92,3.6s0.46-3.38-0.24-4.8c-0.7-1.42-5.14-4.53-7.44-4.56
	c-2.3-0.03-7.77,0.32-11.52,1.68c-3.75,1.36-9.4,4.29-10.08,6.24C975.66,463.05,975.38,465.66,975.38,465.66z"/>
</svg>
