<?xml version="1.0" encoding="UTF-8"?><svg  id="a" xmlns="http://www.w3.org/2000/svg" width="581.75" height="587.15" viewBox="0 0 581.75 587.15"><defs>
<style>.b{fill:none;fill-rule:evenodd;}</style>
</defs><path stroke="red" class="b" d="M416.37,302l-5,190c-10.46,53.13,15.67,75.07-40,90-38.15,10.23-146.05,5.7-164-18-10.04-13.25-7.86-99.29-3-124l7-102,75-14c39.62-9.2,83.71-21.72,130-22Z"
><animate attributeType="CSS" attributeName="fill" 
values="#d6d6d6;#cd5c5ccc;#ffd70080;#90ee9080;#7fffd480;#19197080;#483d8b80;#4b008280;#d6d6d6" 
begin="mouseenter" dur="1s"></animate>
</path>
<path stroke="red" class="b" d="M141.37,187c29.04,5.5,52.27,54.32,37,92-14.76,36.43-76.51,40.92-110,17-7.74-5.53-7.85-14.63-10-26-9.35-49.41,27.63-70.07,61-80l22-3Z"><animate attributeType="CSS" attributeName="fill" 
values="#d6d6d6;#cd5c5ccc;#ffd70080;#90ee9080;#7fffd480;#19197080;#483d8b80;#4b008280;#d6d6d6" 
begin="mouseenter" dur="1s"></animate>
</path>
<path stroke="red" class="b" d="M105.37,54c8.24,9.36-6.72,28.97-10,35-11.56,21.21-46.92,64.83-78,60l-1-5c12.58-32.8,21.74-55.42,50-72,13-6,26-12,39-18Z"><animate attributeType="CSS" attributeName="fill" 
values="#d6d6d6;#cd5c5ccc;#ffd70080;#90ee9080;#7fffd480;#19197080;#483d8b80;#4b008280;#d6d6d6" 
begin="mouseenter" dur="1s"></animate>
</path>
<path stroke="red" class="b" d="M359.37,0l22,1c3.03,25.37,1.58,50.97-16,59-34.37,11.18-70.88-11.59-70-45,23.82-20.04,36.43-4.3,64-15Z"><animate attributeType="CSS" attributeName="fill" 
values="#d6d6d6;#cd5c5ccc;#ffd70080;#90ee9080;#7fffd480;#19197080;#483d8b80;#4b008280;#d6d6d6" 
begin="mouseenter" dur="1s"></animate>
</path>
<path stroke="red" class="b" d="M540.37,48c28.72,20.84,49.9,60.65,38,107-3.79,14.78-.66,26.72-9,36-27.32-7.32-50.8-72.03-43-113,2.35-12.37,13.71-21.98,14-30Z"><animate attributeType="CSS" attributeName="fill" 
values="#d6d6d6;#cd5c5ccc;#ffd70080;#90ee9080;#7fffd480;#19197080;#483d8b80;#4b008280;#d6d6d6" 
begin="mouseenter" dur="1s"></animate>
</path>
<path stroke="red" class="b" d="M427.37,153c64.46,.2,69.94,80.46,7,93-27.31,5.44-48.17-23.22-42-51,5.11-23.01,16.76-31.71,35-42Z"><animate attributeType="CSS" attributeName="fill" 
values="#d6d6d6;#cd5c5ccc;#ffd70080;#90ee9080;#7fffd480;#19197080;#483d8b80;#4b008280;#d6d6d6" 
begin="mouseenter" dur="1s"></animate>
</path>
<path stroke="red" class="b" d="M282.37,7l-3,27c5.57,23.76,37.13,36.21,60,43,10.29,3.05,23.89-1.46,32,2,6.83-12.58,19.58-20.34,24-36,2.85-10.09-1.88-30.25,3-41,47.47-9.55,105.47,19.66,132,37-41.87,62.83-6.56,122.73,27,166-22.57,70.4-188.77,71.93-271,91-21.49,4.98-76.87,21.42-99,13l-3-11c21.92-50.82,7.49-145.39-70-121-22.49,7.08-60.65,24.02-67,44-3.73,11.74-.99,55.74-6,61C-.64,271.01-8.68,211.26,8.37,167c53.11-2.96,89.84-45.13,107-85l11-36,30-10c42.28-11.71,74.73-27.92,126-29Z"><animate attributeType="CSS" attributeName="fill" 
values="#d6d6d6;#cd5c5ccc;#ffd70080;#90ee9080;#7fffd480;#19197080;#483d8b80;#4b008280;#d6d6d6" 
begin="mouseenter" dur="1s"></animate>
</path>
<path stroke="red" class="b" d="M425.37,134c41.69,1.89,83.81,41.57,63,93-8.46,20.92-32.45,28.54-54,33-35.75,7.4-65.68-37.49-57-73,7.61-31.13,21.96-39.86,48-53Z"><animate attributeType="CSS" attributeName="fill" 
values="#d6d6d6;#cd5c5ccc;#ffd70080;#90ee9080;#7fffd480;#19197080;#483d8b80;#4b008280;#d6d6d6" 
begin="mouseenter" dur="1s"></animate>
</path>
<path stroke="red" class="b" d="M205.37,154h12v19l-6,5c-4.33,1.21-8.88,.44-13-1-2-5.38-4.16-5.93-5-13,4.06-5.02,6.47-6.33,12-10Z"><animate attributeType="CSS" attributeName="fill" 
values="#d6d6d6;#cd5c5ccc;#ffd70080;#90ee9080;#7fffd480;#19197080;#483d8b80;#4b008280;#d6d6d6" 
begin="mouseenter" dur="1s"></animate>
</path>
<path stroke="red" class="b" d="M362.37,122c10.29,.21,12.82,6.2,15,14-3.23,2.35-5.49,7.05-7,11h-11l-8-9,1-6c2.35-5.9,5.1-6.79,10-10Z"><animate attributeType="CSS" attributeName="fill" 
values="#d6d6d6;#cd5c5ccc;#ffd70080;#90ee9080;#7fffd480;#19197080;#483d8b80;#4b008280;#d6d6d6" 
begin="mouseenter" dur="1s"></animate>
</path>
<path stroke="red" class="b" d="M321.37,160l7,7-4,24c-23.77,13.32-49.39,23.16-76,6-2.39-6.97-3.85-11.74,0-18h6c3.18,4.94,6.4,10.37,12,13,14.95,4.34,30.95-2.67,42-6,3.45-8.77,7.3-19.42,13-26Z"><animate attributeType="CSS" attributeName="fill" 
values="#d6d6d6;#cd5c5ccc;#ffd70080;#90ee9080;#7fffd480;#19197080;#483d8b80;#4b008280;#d6d6d6" 
begin="mouseenter" dur="1s"></animate>
</path>
</svg>